<svg xmlns="http://www.w3.org/2000/svg" viewBox="0 0 1120 880" width="1120" height="880" font-family="Segoe UI, Inter, system-ui, sans-serif">
  <defs>
    <style>
      .ink   { fill: #23201d; }
      .dim   { fill: #7c746a; }
      .faint { fill: #a49a8e; }
      .panel { fill: #ffffff; stroke: #c9c1b6; stroke-width: 1; }
      .sunk  { fill: #f4f1ec; stroke: #c9c1b6; stroke-width: 1; }
      .plot  { fill: #fbfaf8; stroke: #c9c1b6; stroke-width: 1; }
      .rule  { stroke: #c9c1b6; stroke-width: 1; }
      .hair  { stroke: #ded7cd; stroke-width: 1; }
      .btn   { fill: #efebe4; stroke: #b9b0a4; stroke-width: 1; }
      .on    { fill: #b06a2c; }
      .up    { fill: #2f7d4f; stroke: #2f7d4f; }
      .down  { fill: #a83a2d; stroke: #a83a2d; }
      .t     { font-size: 12px; }
      .ts    { font-size: 10.5px; }
      .tt    { font-size: 13px; font-weight: 600; }
      .num   { font-family: Consolas, ui-monospace, monospace; font-size: 11px; }
      .call  { font-size: 11px; font-weight: 700; fill: #ffffff; }
      .cap   { font-size: 12.5px; }
      .head  { font-size: 15px; font-weight: 600; }
    </style>
    <marker id="arrow" viewBox="0 0 8 8" refX="7" refY="4" markerWidth="7" markerHeight="7" orient="auto">
      <path d="M0 0 L8 4 L0 8 z" fill="#b06a2c"/>
    </marker>
  </defs>

  <rect width="1120" height="880" fill="#f7f5f1"/>

  <text x="40" y="38" class="head ink">Janela do gráfico — modo Backtest</text>
  <text x="40" y="58" class="cap dim">Proposta. O painel ① + ② substitui, no modo Simulador, os controles de ordem manual.</text>

  <!-- ================= a janela ================= -->
  <g transform="translate(40,80)">
    <rect x="0" y="0" width="740" height="750" rx="4" class="panel"/>

    <!-- título -->
    <rect x="1" y="1" width="738" height="26" fill="#eae5dd"/>
    <text x="12" y="19" class="t ink" font-weight="600">WINFUT 5Min</text>
    <text x="112" y="19" class="t up" font-weight="600">+3,04%</text>
    <text x="682" y="19" class="t dim">— □ ✕</text>
    <line x1="0" y1="27" x2="740" y2="27" class="rule"/>

    <!-- barra de ferramentas -->
    <g transform="translate(0,27)">
      <rect x="1" y="0" width="738" height="28" fill="#f4f1ec"/>
      <g transform="translate(10,6)">
        <rect x="0" y="0" width="17" height="17" class="btn"/><line x1="8" y1="2" x2="8" y2="15" class="rule"/><rect x="5" y="5" width="7" height="8" class="ink"/>
        <rect x="21" y="0" width="17" height="17" class="btn"/><line x1="29" y1="2" x2="29" y2="15" class="rule"/><rect x="26" y="5" width="6" height="7" fill="none" stroke="#23201d"/>
        <rect x="42" y="0" width="17" height="17" class="btn"/><polyline points="45,14 50,7 55,11 58,3" fill="none" stroke="#23201d"/>
        <line x1="66" y1="1" x2="66" y2="16" class="hair"/>
        <rect x="72" y="0" width="17" height="17" class="btn"/><line x1="80" y1="3" x2="80" y2="14" class="rule"/><path d="M80 3 l-3 3 M80 3 l3 3 M80 14 l-3 -3 M80 14 l3 -3" stroke="#23201d" fill="none"/>
        <line x1="96" y1="1" x2="96" y2="16" class="hair"/>
        <rect x="102" y="0" width="17" height="17" class="btn"/><rect x="105" y="4" width="11" height="9" fill="none" stroke="#23201d"/>
      </g>
      <line x1="0" y1="28" x2="740" y2="28" class="rule"/>
    </g>

    <!-- legenda -->
    <g transform="translate(0,55)">
      <rect x="1" y="0" width="738" height="22" fill="#ffffff"/>
      <path d="M12 11 l7 0 l-3.5 5 z" class="dim"/>
      <text x="26" y="15" class="ts ink">EMA (17, 55, 200)</text>
      <text x="140" y="15" class="num ink">187.945</text>
      <text x="196" y="15" class="num ink">187.879</text>
      <text x="252" y="15" class="num ink">187.160</text>
      <text x="690" y="15" class="ts dim">👁 ⚙ ✕</text>
      <line x1="0" y1="22" x2="740" y2="22" class="rule"/>
    </g>

    <!-- gráfico -->
    <g transform="translate(0,77)">
      <rect x="1" y="0" width="672" height="250" class="plot"/>
      <rect x="673" y="0" width="66" height="250" fill="#f4f1ec"/>
      <line x1="673" y1="0" x2="673" y2="250" class="rule"/>
      <text x="681" y="30" class="num faint">188.035</text>
      <text x="681" y="90" class="num faint">187.900</text>
      <text x="681" y="150" class="num faint">187.760</text>
      <rect x="673" y="112" width="66" height="15" fill="#b06a2c"/>
      <text x="681" y="123" class="num" fill="#ffffff">187.901</text>

      <!-- candles -->
      <g stroke="#6f665b">
        <g transform="translate(40,0)"><line x1="0" y1="60" x2="0" y2="120"/><rect x="-4" y="72" width="8" height="34" fill="#fbfaf8"/></g>
        <g transform="translate(64,0)"><line x1="0" y1="70" x2="0" y2="132"/><rect x="-4" y="86" width="8" height="30" fill="#6f665b"/></g>
        <g transform="translate(88,0)"><line x1="0" y1="76" x2="0" y2="140"/><rect x="-4" y="92" width="8" height="36" fill="#fbfaf8"/></g>
        <g transform="translate(112,0)"><line x1="0" y1="58" x2="0" y2="118"/><rect x="-4" y="66" width="8" height="40" fill="#fbfaf8"/></g>
        <g transform="translate(136,0)"><line x1="0" y1="52" x2="0" y2="108"/><rect x="-4" y="60" width="8" height="30" fill="#6f665b"/></g>
        <g transform="translate(160,0)"><line x1="0" y1="66" x2="0" y2="126"/><rect x="-4" y="80" width="8" height="32" fill="#6f665b"/></g>
        <g transform="translate(184,0)"><line x1="0" y1="80" x2="0" y2="146"/><rect x="-4" y="96" width="8" height="36" fill="#fbfaf8"/></g>
        <g transform="translate(208,0)"><line x1="0" y1="90" x2="0" y2="150"/><rect x="-4" y="104" width="8" height="30" fill="#fbfaf8"/></g>
        <g transform="translate(232,0)"><line x1="0" y1="74" x2="0" y2="134"/><rect x="-4" y="86" width="8" height="34" fill="#6f665b"/></g>
        <g transform="translate(256,0)"><line x1="0" y1="60" x2="0" y2="122"/><rect x="-4" y="72" width="8" height="36" fill="#fbfaf8"/></g>
        <g transform="translate(280,0)"><line x1="0" y1="50" x2="0" y2="112"/><rect x="-4" y="62" width="8" height="34" fill="#fbfaf8"/></g>
        <g transform="translate(304,0)"><line x1="0" y1="64" x2="0" y2="126"/><rect x="-4" y="78" width="8" height="32" fill="#6f665b"/></g>
        <g transform="translate(360,0)"><line x1="0" y1="84" x2="0" y2="146"/><rect x="-4" y="98" width="8" height="34" fill="#fbfaf8"/></g>
        <g transform="translate(384,0)"><line x1="0" y1="70" x2="0" y2="132"/><rect x="-4" y="82" width="8" height="36" fill="#fbfaf8"/></g>
        <g transform="translate(408,0)"><line x1="0" y1="58" x2="0" y2="118"/><rect x="-4" y="70" width="8" height="32" fill="#6f665b"/></g>
        <g transform="translate(432,0)"><line x1="0" y1="72" x2="0" y2="136"/><rect x="-4" y="88" width="8" height="34" fill="#fbfaf8"/></g>
        <g transform="translate(456,0)"><line x1="0" y1="88" x2="0" y2="152"/><rect x="-4" y="102" width="8" height="36" fill="#6f665b"/></g>
        <g transform="translate(480,0)"><line x1="0" y1="76" x2="0" y2="140"/><rect x="-4" y="90" width="8" height="34" fill="#fbfaf8"/></g>
        <g transform="translate(504,0)"><line x1="0" y1="62" x2="0" y2="124"/><rect x="-4" y="74" width="8" height="36" fill="#fbfaf8"/></g>
        <g transform="translate(528,0)"><line x1="0" y1="54" x2="0" y2="116"/><rect x="-4" y="66" width="8" height="32" fill="#6f665b"/></g>
        <g transform="translate(568,0)"><line x1="0" y1="68" x2="0" y2="130"/><rect x="-4" y="82" width="8" height="34" fill="#fbfaf8"/></g>
        <g transform="translate(592,0)"><line x1="0" y1="80" x2="0" y2="144"/><rect x="-4" y="94" width="8" height="36" fill="#fbfaf8"/></g>
        <g transform="translate(616,0)"><line x1="0" y1="66" x2="0" y2="128"/><rect x="-4" y="78" width="8" height="34" fill="#6f665b"/></g>
      </g>

      <!-- operacoes -->
      <path d="M64 148 L136 96" class="up" fill="none" stroke-width="1.5" stroke-dasharray="4 3"/>
      <polygon points="64,152 59,162 69,162" class="up"/>
      <polygon points="136,92 131,82 141,82" class="up"/>
      <path d="M232 150 L304 168" class="down" fill="none" stroke-width="1.5" stroke-dasharray="4 3"/>
      <polygon points="232,154 227,164 237,164" class="down"/>
      <polygon points="304,172 299,182 309,182" class="down"/>
      <path d="M432 156 L528 106" class="up" fill="none" stroke-width="1.5" stroke-dasharray="4 3"/>
      <polygon points="432,160 427,170 437,170" class="up"/>
      <polygon points="528,102 523,92 533,92" class="up"/>

      <!-- fronteira do "a frente" -->
      <line x1="340" y1="0" x2="340" y2="250" stroke="#b06a2c" stroke-width="1.5" stroke-dasharray="6 4"/>
      <rect x="342" y="6" width="86" height="16" fill="#b06a2c"/>
      <text x="348" y="18" class="ts" fill="#ffffff">à frente ▸</text>

      <line x1="0" y1="250" x2="740" y2="250" class="rule"/>
    </g>

    <!-- eixos -->
    <g transform="translate(0,327)">
      <rect x="1" y="0" width="672" height="20" fill="#f4f1ec"/>
      <text x="46" y="14" class="ts dim">09:00</text><text x="166" y="14" class="ts dim">10:00</text>
      <text x="286" y="14" class="ts dim">11:00</text><text x="406" y="14" class="ts dim">12:00</text>
      <text x="526" y="14" class="ts dim">13:00</text>
      <line x1="0" y1="20" x2="740" y2="20" class="rule"/>
      <rect x="1" y="20" width="672" height="18" fill="#eae5dd"/>
      <text x="130" y="33" class="ts ink">02/09</text>
      <line x1="340" y1="20" x2="340" y2="38" class="rule"/>
      <text x="470" y="33" class="ts ink">03/09</text>
      <line x1="0" y1="38" x2="740" y2="38" class="rule"/>
    </g>

    <!-- layouts -->
    <g transform="translate(0,365)">
      <rect x="1" y="0" width="738" height="24" fill="#f4f1ec"/>
      <rect x="8" y="3" width="52" height="18" fill="#ffffff" stroke="#b9b0a4"/><text x="16" y="16" class="ts ink">Limpo</text>
      <rect x="64" y="3" width="96" height="18" class="btn"/><text x="72" y="16" class="ts dim">Topos e fundos</text>
      <rect x="164" y="3" width="66" height="18" class="btn"/><text x="172" y="16" class="ts dim">Tendência</text>
      <rect x="234" y="3" width="20" height="18" class="btn"/><text x="241" y="16" class="ts dim">+</text>
      <line x1="0" y1="24" x2="740" y2="24" class="rule"/>
    </g>

    <!-- (1) linha de comando -->
    <g transform="translate(0,389)">
      <rect x="1" y="0" width="738" height="56" fill="#eae5dd"/>
      <line x1="0" y1="0" x2="740" y2="0" stroke="#b06a2c" stroke-width="2"/>

      <rect x="10" y="8" width="122" height="19" rx="9" fill="#ffffff" stroke="#b9b0a4"/>
      <rect x="10" y="8" width="62" height="19" rx="9" class="on"/>
      <text x="20" y="21" class="ts" fill="#ffffff">Backtest</text>
      <text x="80" y="21" class="ts dim">Simulador</text>

      <text x="146" y="21" class="ts dim">Estratégia</text>
      <rect x="204" y="8" width="148" height="19" fill="#ffffff" stroke="#b9b0a4"/>
      <text x="210" y="21" class="ts ink">Cruzamento de médias ▾</text>
      <rect x="356" y="8" width="21" height="19" class="btn"/><text x="362" y="21" class="ts ink">⚙</text>

      <text x="392" y="21" class="ts dim">Custo</text>
      <text x="428" y="21" class="ts ink" font-weight="600">6,5 pts</text>

      <text x="10" y="46" class="ts dim">Período</text>
      <rect x="56" y="33" width="86" height="19" fill="#ffffff" stroke="#b9b0a4"/>
      <text x="62" y="46" class="ts ink">Tudo ▾</text>

      <text x="152" y="46" class="ts dim">À frente</text>
      <rect x="204" y="33" width="66" height="19" fill="#ffffff" stroke="#b9b0a4"/>
      <text x="210" y="46" class="ts ink">1/3 ▾</text>

      <text x="282" y="46" class="ts dim">Fatias</text>
      <rect x="322" y="33" width="86" height="19" fill="#ffffff" stroke="#b9b0a4"/>
      <text x="328" y="46" class="ts ink">Trimestre ▾</text>

      <rect x="560" y="19" width="72" height="22" class="on"/>
      <text x="576" y="34" class="ts" fill="#ffffff">▶ Rodar</text>
      <rect x="640" y="24" width="88" height="11" fill="#ffffff" stroke="#b9b0a4"/>
      <rect x="641" y="25" width="60" height="9" class="on"/>
      <line x1="0" y1="56" x2="740" y2="56" class="rule"/>
    </g>

    <!-- (2) resultado -->
    <g transform="translate(0,445)">
      <rect x="1" y="0" width="738" height="26" fill="#f4f1ec"/>
      <rect x="8" y="4" width="56" height="20" fill="#ffffff" stroke="#b9b0a4"/><text x="18" y="18" class="ts ink">Resumo</text>
      <rect x="68" y="4" width="70" height="20" class="btn"/><text x="76" y="18" class="ts dim">Operações</text>
      <rect x="142" y="4" width="50" height="20" class="btn"/><text x="152" y="18" class="ts dim">Curva</text>
      <rect x="196" y="4" width="76" height="20" class="btn"/><text x="204" y="18" class="ts dim">Distribuição</text>
      <text x="712" y="18" class="ts dim">▲</text>
      <line x1="0" y1="26" x2="740" y2="26" class="rule"/>

      <g transform="translate(0,26)">
        <rect x="1" y="0" width="738" height="278" fill="#ffffff"/>

        <text x="188" y="22" class="ts dim">Amostra</text>
        <text x="330" y="22" class="ts" fill="#b06a2c" font-weight="600">À frente</text>
        <text x="470" y="22" class="ts dim">Trivial da fatia</text>
        <line x1="16" y1="30" x2="600" y2="30" class="hair"/>

        <g class="ts">
          <text x="16"  y="50" class="dim">Operações</text>
          <text x="188" y="50" class="num ink">412</text>
          <text x="330" y="50" class="num ink">137</text>
          <text x="470" y="50" class="num faint">—</text>

          <text x="16"  y="74" class="dim">Acerto</text>
          <text x="188" y="74" class="num ink">43,1%</text>
          <text x="330" y="74" class="num ink">41,8%</text>
          <text x="470" y="74" class="num ink">46,4%</text>

          <text x="16"  y="98" class="dim">Bruto</text>
          <text x="188" y="98" class="num up">+2.140</text>
          <text x="330" y="98" class="num up">+310</text>
          <text x="470" y="98" class="num faint">—</text>

          <text x="16"  y="122" class="dim">Custo</text>
          <text x="188" y="122" class="num down">−2.678</text>
          <text x="330" y="122" class="num down">−890</text>
          <text x="470" y="122" class="num faint">—</text>
        </g>
        <line x1="16" y1="134" x2="600" y2="134" class="hair"/>
        <g class="ts">
          <text x="16"  y="156" class="ink" font-weight="600">Líquido</text>
          <text x="188" y="156" class="num down" font-weight="600">−538</text>
          <text x="330" y="156" class="num down" font-weight="600">−580</text>
          <text x="470" y="156" class="num faint">—</text>

          <text x="16"  y="180" class="dim">Por operação</text>
          <text x="188" y="180" class="num down">−1,31</text>
          <text x="330" y="180" class="num down">−4,23</text>
          <text x="470" y="180" class="num faint">—</text>
        </g>

        <rect x="16" y="200" width="584" height="26" fill="#fdf4e8" stroke="#e0bb8a"/>
        <text x="26" y="217" class="ts ink">⚠  3 operações (0,7%) tocaram stop e alvo na mesma barra — resolvidas pelo stop.</text>

        <rect x="16" y="234" width="584" height="26" fill="#fdf4e8" stroke="#e0bb8a"/>
        <text x="26" y="251" class="ts ink">⚠  À frente piorou por operação: o resultado da amostra não replicou.</text>
      </g>
      <line x1="0" y1="304" x2="740" y2="304" class="rule"/>
    </g>
  </g>

  <!-- ================= chamadas ================= -->
  <g>
    <g transform="translate(806,478)">
      <circle cx="0" cy="0" r="11" class="on"/><text x="-4" y="4" class="call">1</text>
      <text x="22" y="-2" class="cap ink" font-weight="600">Linha de comando</text>
      <text x="22" y="16" class="cap dim">Sempre visível. A ⚙ abre o diálogo</text>
      <text x="22" y="32" class="cap dim">com Execução, Posição, Risco, Custos.</text>
    </g>
    <line x1="795" y1="478" x2="782" y2="478" stroke="#b06a2c" marker-end="url(#arrow)"/>

    <g transform="translate(806,560)">
      <circle cx="0" cy="0" r="11" class="on"/><text x="-4" y="4" class="call">2</text>
      <text x="22" y="-2" class="cap ink" font-weight="600">Resultado, recolhível</text>
      <text x="22" y="16" class="cap dim">Amostra e à frente lado a lado, sempre.</text>
      <text x="22" y="32" class="cap dim">O trivial é o da fatia, nunca o global.</text>
    </g>
    <line x1="795" y1="560" x2="782" y2="560" stroke="#b06a2c" marker-end="url(#arrow)"/>

    <g transform="translate(806,240)">
      <circle cx="0" cy="0" r="11" class="on"/><text x="-4" y="4" class="call">3</text>
      <text x="22" y="-2" class="cap ink" font-weight="600">Marcas e fronteira</text>
      <text x="22" y="16" class="cap dim">▲ entrada, ▼ saída. A linha tracejada</text>
      <text x="22" y="32" class="cap dim">é onde começa o teste à frente.</text>
      <text x="22" y="48" class="cap dim">Clicar numa operação leva o gráfico até ela.</text>
    </g>
    <line x1="795" y1="240" x2="782" y2="240" stroke="#b06a2c" marker-end="url(#arrow)"/>

    <g transform="translate(806,690)">
      <circle cx="0" cy="0" r="11" class="on"/><text x="-4" y="4" class="call">4</text>
      <text x="22" y="-2" class="cap ink" font-weight="600">Avisos, não notas de rodapé</text>
      <text x="22" y="16" class="cap dim">Barras ambíguas e falha de réplica</text>
      <text x="22" y="32" class="cap dim">aparecem junto do número que elas</text>
      <text x="22" y="48" class="cap dim">contaminam.</text>
    </g>
    <line x1="795" y1="690" x2="782" y2="690" stroke="#b06a2c" marker-end="url(#arrow)"/>

    <g transform="translate(806,110)">
      <text x="0" y="0" class="cap ink" font-weight="600">De onde veio</text>
      <text x="0" y="20" class="cap dim">ta4j — motor, execução na abertura</text>
      <text x="0" y="36" class="cap dim">seguinte, custos, 31 métricas</text>
      <text x="0" y="56" class="cap dim">MetaTrader — teste à frente embutido,</text>
      <text x="0" y="72" class="cap dim">distribuição, saldo × patrimônio</text>
      <text x="0" y="92" class="cap dim">Profit — as quatro seções atrás da ⚙</text>
      <text x="0" y="112" class="cap dim">endeavour — custo 6,5, trivial por fatia</text>
    </g>
  </g>
</svg>
